# xmcd CD database file
#
# Track frame offsets:
#	150
#	45230
#	100502
#	146476
#	200895
#	250925
#	285700
#
# Disc length: 4488 seconds
#
# Revision: 0
# Processed by: cddbd v1.5.1PL2 Copyright (c) Steve Scherf et al.
# Submitted via: CDex 1.51
#
DISCID=5f118607
DTITLE=George Cables Quartet - Live in Bollate
DYEAR=2006
DGENRE=Jazz
TTITLE0=Looking For The Light
TTITLE1=Helens's Song
TTITLE2=Senorita De Aranjuez
TTITLE3=Mr Baggy Pants
TTITLE4=Yo Todavia La Quiero
TTITLE5=Round Midnight
TTITLE6=I Mean You
EXTD=YEAR: 2006
EXTT0=
EXTT1=
EXTT2=
EXTT3=
EXTT4=
EXTT5=
EXTT6=
PLAYORDER=
